#!OML:ASF I:\Actors\actors\Patient Classification 2\Patient 1\Session 1\actor1.ASF
:FULLY-SPECIFIED
:DEGREES
476
root -0.570523 18.7018 5.28532 0.534251 -3.17564 -1.78185
lowerback 6.0092 4.11085 -0.931309
upperback 1.60551 5.4072 -0.2188
thorax -1.76738 2.69855 -0.108713
lowerneck -12.0148 -3.03833 1.20539
upperneck 35.1234 -6.44667 4.63362
head 14.1563 -1.98136 0.68149
rclavicle -1.26228e-014 -1.19271e-014
rhumerus -18.5354 48.0258 -108.311
rradius 79.3814
rwrist -18.5765
rhand -11.4861 -40.7467
rfingers 7.12502
rthumb 14.5522 -70.2162
lclavicle -1.26228e-014 -1.19271e-014
lhumerus -25.5108 7.63884 74.8152
lradius 77.2699
lwrist -2.16402
lhand -23.9466 -52.7441
lfingers 7.12502
lthumb 2.52889 -22.7793
rfemur 0 0 0
rtibia 0
rfoot 0 0
rtoes 0
lfemur -4.48379 -3.14835 -12.792
ltibia 22.7684
lfoot -23.0915 16.5074
ltoes -54.9582
477
root -0.571422 18.7002 5.28007 0.530728 -3.41651 -1.8381
lowerback 6.09788 4.27577 -0.811418
upperback 1.68851 5.6336 -0.183059
thorax -1.72485 2.81089 -0.158463
lowerneck -12.0006 -3.52897 0.729957
upperneck 35.1617 -7.16377 4.9439
head 14.2275 -2.31084 0.779417
rclavicle -4.3186e-014 7.95139e-015
rhumerus -17.6993 47.7126 -108.003
rradius 78.6776
rwrist -24.0006
rhand -8.97628 -42.3375
rfingers 7.12502
rthumb 16.9693 -71.6162
lclavicle -4.3186e-014 7.95139e-015
lhumerus -26.5073 4.97486 75.4129
lradius 77.839
lwrist -2.09182
lhand -23.8337 -51.6396
lfingers 7.12502
lthumb 2.63796 -21.6762
rfemur 0 0 0
rtibia 0
rfoot 0 0
rtoes 0
lfemur -4.45098 -3.00226 -12.7344
ltibia 22.8068
lfoot -23.0875 16.6067
ltoes -55.012
478
root -0.573456 18.6998 5.27372 0.519822 -3.46388 -1.86994
lowerback 6.1701 4.41229 -0.750541
upperback 1.78008 5.81919 -0.133972
thorax -1.67068 2.9031 -0.157428
lowerneck -11.9015 -4.0914 0.0615752
upperneck 35.1334 -7.99842 5.44969
head 14.2828 -2.69395 0.972028
rclavicle 6.16978e-014 -1.11319e-014
rhumerus -17.1702 47.193 -107.359
rradius 78.4084
rwrist -28.145
rhand -7.1849 -43.6477
rfingers 7.12502
rthumb 18.693 -72.7696
lclavicle 6.16978e-014 -1.11319e-014
lhumerus -27.394 2.31935 76.3054
lradius 78.5595
lwrist -1.83181
lhand -23.6134 -50.4925
lfingers 7.12502
lthumb 2.85075 -20.5318
rfemur 0 0 0
rtibia 0
rfoot 0 0
rtoes 0
lfemur -4.48058 -2.98624 -12.699
ltibia 22.8719
lfoot -23.0156 16.6971
ltoes -55.1277
479
root -0.574551 18.6999 5.26673 0.519887 -3.34973 -1.86545
lowerback 6.22762 4.49751 -0.746429
upperback 1.84911 5.93366 -0.0629686
thorax -1.63919 2.95999 -0.0975838
lowerneck -11.6862 -4.67937 -0.552258
upperneck 35.0566 -8.79065 5.70779
head 14.2805 -3.08922 1.06254
rclavicle -3.79679e-014 -5.96354e-015
rhumerus -16.9953 46.5372 -106.535
rradius 78.4772
rwrist -31.0009
rhand -5.47942 -44.9257
rfingers 7.12502
rthumb 20.3327 -73.8814
lclavicle -3.79679e-014 -5.96354e-015
lhumerus -28.2075 -0.0504253 77.4447
lradius 79.1425
lwrist -1.64585
lhand -23.4518 -49.9954
lfingers 7.12502
lthumb 3.00679 -20.0368
rfemur 0 0 0
rtibia 0
rfoot 0 0
rtoes 0
lfemur -4.57922 -3.06589 -12.7028
ltibia 22.9581
lfoot -22.9561 16.7184
ltoes -55.1729
480
root -0.573829 18.6998 5.2618 0.522587 -3.14319 -1.8772
lowerback 6.29658 4.52177 -0.714105
upperback 1.86791 5.96889 0.0199139
thorax -1.66384 2.97737 -0.0387084
lowerneck -11.3873 -5.22387 -1.01469
upperneck 34.9956 -9.46427 5.69801
head 14.2414 -3.45121 1.03939
rclavicle 3.63527e-014 1.39149e-015
rhumerus -17.1368 45.7876 -105.635
rradius 78.7337
rwrist -33.0993
rhand -3.86259 -46.236
rfingers 7.12502
rthumb 21.8859 -75.0182
lclavicle 3.63527e-014 1.39149e-015
lhumerus -29.1113 -2.06072 78.711
lradius 79.7144
lwrist -1.6788
lhand -23.4315 -50.0202
lfingers 7.12502
lthumb 3.02638 -20.0619
rfemur 0 0 0
rtibia 0
rfoot 0 0
rtoes 0
lfemur -4.70646 -3.12173 -12.6788
ltibia 23.0565
lfoot -22.8991 16.5935
ltoes -55.1943
481
root -0.573557 18.7005 5.25856 0.523798 -2.86381 -1.9385
lowerback 6.39236 4.48508 -0.620427
upperback 1.84341 5.92683 0.101594
thorax -1.74111 2.95614 -0.0131436
lowerneck -11.13 -5.70805 -1.64512
upperneck 35.0476 -10.1154 5.94838
head 14.2985 -3.78647 1.15335
rclavicle -2.55935e-014 4.77083e-015
rhumerus -17.4859 44.9277 -104.635
rradius 79.1119
rwrist -34.959
rhand -2.86568 -47.1502
rfingers 7.12502
rthumb 22.8429 -75.8174
lclavicle -2.55935e-014 4.77083e-015
lhumerus -30.0135 -3.61672 79.9923
lradius 80.3455
lwrist -1.90642
lhand -23.4815 -50.0454
lfingers 7.12502
lthumb 2.97812 -20.0865
rfemur 0 0 0
rtibia 0
rfoot 0 0
rtoes 0
lfemur -4.84905 -3.19376 -12.5878
ltibia 23.1632
lfoot -22.8074 16.3822
ltoes -55.2168
482
root -0.574668 18.7012 5.25613 0.563337 -2.53135 -1.95627
lowerback 6.46844 4.39324 -0.518779
upperback 1.78678 5.81102 0.115852
thorax -1.83229 2.89811 -0.0544203
lowerneck -10.9137 -6.15105 -2.45369
upperneck 35.1653 -10.776 6.47938
head 14.4406 -4.10968 1.4083
rclavicle -5.88651e-014 1.98785e-015
rhumerus -17.932 43.9764 -103.634
rradius 79.5235
rwrist -36.4987
rhand -2.46459 -47.6809
rfingers 7.12502
rthumb 23.2277 -76.3002
lclavicle -5.88651e-014 1.98785e-015
lhumerus -30.8724 -4.79179 81.1495
lradius 81.0442
lwrist -2.13154
lhand -23.4532 -49.7698
lfingers 7.12502
lthumb 3.00544 -19.8112
rfemur 0 0 0
rtibia 0
rfoot 0 0
rtoes 0
lfemur -5.04735 -3.27918 -12.537
ltibia 23.2692
lfoot -22.6642 16.1931
ltoes -55.2523
483
root -0.576855 18.7015 5.25315 0.637826 -2.1532 -1.94757
lowerback 6.50676 4.23067 -0.395817
upperback 1.72227 5.60198 0.0810967
thorax -1.90367 2.79351 -0.146712
lowerneck -10.653 -6.51935 -3.14506
upperneck 35.1939 -11.3062 6.88316
head 14.5148 -4.38417 1.6128
rclavicle -5.29264e-015 1.5704e-014
rhumerus -18.3496 42.9942 -102.59
rradius 79.8938
rwrist -37.5104
rhand -1.86341 -48.286
rfingers 7.12502
rthumb 23.8044 -76.8313
lclavicle -5.29264e-015 1.5704e-014
lhumerus -31.7335 -5.58987 82.1873
lradius 81.7792
lwrist -2.22832
lhand -23.2302 -49.2978
lfingers 7.12502
lthumb 3.22076 -19.3424
rfemur 0 0 0
rtibia 0
rfoot 0 0
rtoes 0
lfemur -5.28558 -3.3454 -12.5057
ltibia 23.3516
lfoot -22.5092 15.9608
ltoes -55.3297
